<?xml version="1.0" standalone="no"?>
<!DOCTYPE svg PUBLIC "-//W3C//DTD SVG 20010904//EN"
 "http://www.w3.org/TR/2001/REC-SVG-20010904/DTD/svg10.dtd">
<svg version="1.0" xmlns="http://www.w3.org/2000/svg"
 width="928.000000pt" height="928.000000pt" viewBox="0 0 928.000000 928.000000"
 preserveAspectRatio="xMidYMid meet">
<metadata>
Created by potrace 1.14, written by Peter Selinger 2001-2017
</metadata>
<g transform="translate(0.000000,928.000000) scale(0.100000,-0.100000)"
fill="#000000" stroke="none">
<path d="M4812 6731 c-9 -5 -14 -32 -15 -77 l-2 -68 35 -12 c19 -6 75 -19 124
-28 377 -71 736 -337 937 -692 77 -136 115 -237 149 -394 19 -86 18 -85 101
-85 l74 0 -2 45 c-4 82 -71 300 -127 415 -51 103 -146 257 -198 317 -13 14
-40 47 -61 72 -46 56 -210 197 -294 254 -94 64 -288 159 -379 187 -74 23 -209
55 -294 69 -19 3 -41 2 -48 -3z"/>
<path d="M4235 6695 c-234 -65 -478 -196 -630 -336 -33 -30 -68 -62 -78 -70
-14 -11 -107 -117 -147 -166 -23 -29 -118 -181 -131 -210 -7 -18 -17 -33 -20
-33 -4 0 -19 -30 -34 -67 -15 -38 -38 -90 -51 -118 -12 -27 -28 -81 -35 -120
-6 -38 -15 -74 -19 -80 -4 -5 -11 -32 -15 -59 -8 -60 -1 -66 77 -66 69 0 67
-4 107 152 51 196 136 368 256 518 49 61 176 188 240 239 93 74 242 163 336
200 42 17 130 44 195 61 65 17 124 36 131 42 10 8 13 31 11 77 l-3 66 -35 2
c-19 1 -89 -13 -155 -32z"/>
<path d="M3965 5988 c-3 -7 -4 -258 -3 -558 l3 -545 49 -3 c98 -6 91 -23 88
221 l-3 215 163 4 c143 4 169 7 216 28 107 47 172 164 172 309 0 165 -80 286
-216 327 -64 19 -462 20 -469 2z m400 -119 c55 -15 87 -40 109 -86 10 -21 22
-46 27 -55 12 -24 11 -135 -1 -143 -5 -3 -10 -16 -10 -28 0 -31 -48 -83 -92
-102 -44 -18 -247 -21 -279 -5 -18 10 -19 23 -19 220 l0 210 113 0 c61 0 130
-5 152 -11z"/>
<path d="M4869 5357 c-25 -7 -65 -25 -90 -39 -45 -27 -109 -90 -109 -108 0 -5
-3 -10 -8 -10 -8 0 -42 -74 -42 -93 0 -7 -4 -17 -9 -22 -15 -16 -23 -118 -23
-300 -1 -174 8 -281 23 -291 5 -3 9 -14 9 -25 0 -33 46 -114 91 -159 63 -64
134 -93 228 -93 163 1 270 60 325 182 28 63 51 165 41 181 -10 16 -114 12
-131 -4 -8 -8 -14 -33 -14 -55 0 -22 -4 -43 -10 -46 -5 -3 -10 -13 -10 -22 0
-26 -50 -84 -86 -99 -43 -18 -135 -18 -177 0 -49 21 -94 71 -119 134 -22 54
-23 69 -23 302 1 231 2 248 23 302 25 63 70 113 119 134 75 32 200 5 237 -51
23 -35 46 -105 46 -141 0 -38 12 -44 92 -44 l61 0 -6 52 c-18 152 -92 261
-201 299 -75 26 -177 33 -237 16z"/>
<path d="M3072 4998 c-14 -14 -16 -70 -3 -112 6 -17 17 -69 27 -116 65 -322
298 -677 589 -897 98 -73 232 -151 332 -193 133 -56 368 -118 399 -106 20 8
20 129 -1 150 -8 8 -50 22 -93 32 -169 37 -355 120 -502 223 -133 93 -326 299
-405 432 -84 143 -151 318 -181 479 -9 52 -22 101 -27 108 -12 16 -119 16
-135 0z"/>
<path d="M6090 4997 c-9 -7 -22 -39 -29 -72 -47 -221 -57 -250 -142 -430 -149
-317 -479 -600 -821 -706 -75 -23 -229 -59 -252 -59 -2 0 -12 -8 -23 -17 -21
-19 -38 -97 -27 -126 9 -25 76 -22 192 8 207 52 310 94 478 196 391 235 652
612 745 1075 12 62 19 119 16 128 -8 20 -113 22 -137 3z"/>
<path d="M1693 3233 c-10 -3 -13 -38 -13 -124 0 -131 0 -131 -63 -104 -20 8
-49 15 -64 15 -54 0 -142 -62 -143 -100 0 -9 -4 -20 -9 -25 -11 -12 -22 -91
-23 -165 -2 -122 31 -215 91 -256 46 -31 130 -33 170 -5 27 20 28 20 57 0 40
-26 71 -25 76 4 4 19 4 249 -1 650 l-1 117 -32 -1 c-18 0 -39 -3 -45 -6z m-82
-303 c11 0 31 -11 44 -25 24 -23 25 -28 25 -173 0 -144 -1 -150 -25 -176 -19
-21 -33 -26 -68 -26 -39 0 -49 5 -75 35 -37 41 -47 94 -39 211 7 116 46 174
105 158 8 -2 22 -4 33 -4z"/>
<path d="M4596 3198 c-48 -13 -115 -79 -146 -144 -21 -43 -24 -67 -28 -197 -4
-151 3 -207 36 -277 42 -88 109 -129 211 -130 112 0 181 51 217 160 20 62 12
83 -33 88 -23 2 -32 -2 -41 -23 -7 -14 -12 -33 -12 -41 0 -21 -21 -55 -50 -81
-37 -34 -117 -32 -160 3 -45 39 -60 75 -71 176 -15 129 2 279 37 331 46 70
145 90 192 39 31 -33 48 -65 56 -104 8 -36 36 -51 72 -38 24 9 26 14 22 48 -9
63 -49 134 -94 165 -33 23 -55 30 -105 33 -35 2 -81 -2 -103 -8z"/>
<path d="M6630 3188 c-51 -55 17 -121 70 -68 25 25 26 52 2 73 -25 23 -47 21
-72 -5z"/>
<path d="M0 2829 l0 -370 48 3 47 3 5 140 5 140 105 5 c125 7 175 28 217 92
25 37 28 50 28 127 0 69 -5 94 -22 128 -45 83 -101 103 -295 103 l-138 0 0
-371z m294 271 c52 -25 68 -61 67 -146 -1 -108 -27 -126 -167 -122 l-89 3 -3
134 c-2 101 1 136 10 143 26 16 140 9 182 -12z"/>
<path d="M8543 3194 c-10 -4 -13 -88 -13 -370 l0 -365 48 3 47 3 0 365 0 365
-35 2 c-19 1 -41 0 -47 -3z"/>
<path d="M8796 3192 c-4 -6 -10 -656 -7 -719 1 -9 17 -13 46 -13 l44 0 3 143
3 142 110 5 c135 7 179 27 219 100 22 40 26 61 26 124 0 123 -49 193 -150 215
-59 13 -286 15 -294 3z m291 -91 c72 -38 86 -184 24 -251 -16 -16 -160 -28
-206 -16 -25 6 -25 6 -25 134 0 89 4 132 13 141 14 16 162 10 194 -8z"/>
<path d="M2948 3137 c-11 -9 -18 -31 -20 -68 -2 -45 -6 -54 -23 -57 -40 -6
-65 -25 -65 -49 0 -19 5 -23 33 -23 18 0 38 -5 45 -12 8 -8 12 -68 12 -203 0
-210 8 -247 57 -266 43 -16 91 -11 107 12 19 28 11 46 -30 65 -19 9 -37 26
-39 38 -3 11 -4 95 -3 186 l3 164 37 9 c56 13 62 59 10 72 -43 11 -52 24 -52
76 0 44 -3 51 -26 59 -30 12 -25 12 -46 -3z"/>
<path d="M6358 3139 c-14 -8 -18 -23 -18 -65 0 -35 -4 -56 -12 -58 -62 -16
-73 -23 -76 -45 -4 -28 14 -43 44 -36 22 5 48 -28 44 -56 -1 -8 -2 -93 -1
-190 l1 -177 29 -31 c24 -26 37 -31 73 -31 49 0 68 13 68 46 0 16 -11 28 -37
41 l-38 18 -3 187 -2 187 34 7 c68 12 74 55 9 71 l-38 9 -3 57 c-3 51 -6 59
-28 67 -30 12 -25 12 -46 -1z"/>
<path d="M716 3005 c-24 -18 -50 -19 -75 -4 -10 7 -30 9 -44 5 l-27 -6 0 -265
c0 -258 0 -265 21 -275 11 -7 32 -9 45 -6 l24 6 0 190 c0 234 11 269 86 270
37 0 54 16 54 50 0 48 -44 65 -84 35z"/>
<path d="M1003 3007 c-43 -16 -103 -67 -103 -89 0 -10 -3 -18 -8 -18 -33 0
-50 -224 -23 -305 31 -90 106 -145 197 -145 94 1 181 66 205 155 18 64 14 223
-6 275 -44 112 -155 166 -262 127z m115 -83 c13 -9 34 -33 47 -55 22 -34 25
-50 25 -134 0 -52 -4 -103 -8 -113 -32 -65 -43 -78 -73 -88 -65 -22 -127 17
-148 94 -14 48 -14 166 0 216 23 81 100 121 157 80z"/>
<path d="M2548 3010 c-108 -32 -148 -111 -147 -285 1 -111 7 -143 44 -203 53
-87 225 -97 296 -16 24 28 49 80 49 104 0 53 -73 30 -98 -30 -31 -74 -124 -78
-174 -7 -18 25 -23 49 -26 126 -8 167 24 241 105 241 50 0 72 -16 94 -66 22
-48 49 -68 79 -59 38 12 14 111 -37 157 -45 41 -122 57 -185 38z"/>
<path d="M3313 3004 c-51 -19 -82 -49 -114 -110 -21 -42 -24 -61 -24 -158 0
-118 9 -155 52 -214 51 -69 162 -93 248 -53 89 41 120 111 120 271 0 104 -2
120 -26 165 -49 96 -154 137 -256 99z m131 -85 c47 -37 66 -92 66 -191 0 -49
-4 -96 -9 -106 -5 -9 -15 -30 -22 -46 -18 -37 -68 -59 -111 -48 -18 4 -45 24
-62 45 -28 36 -31 44 -34 138 -5 114 11 174 55 209 33 26 83 26 117 -1z"/>
<path d="M3812 3000 c-47 -22 -81 -55 -82 -82 0 -9 -4 -20 -10 -23 -13 -8 -13
-50 2 -78 6 -12 14 -29 18 -37 4 -8 52 -39 106 -67 54 -29 107 -63 117 -74 22
-28 22 -60 -3 -86 -45 -49 -124 -33 -156 30 -20 38 -31 47 -63 47 -34 0 -52
-27 -38 -60 36 -82 98 -123 188 -123 109 1 179 62 179 156 0 77 -21 101 -137
159 -78 39 -106 59 -119 83 -16 30 -16 33 0 58 35 53 119 43 155 -19 19 -32
35 -39 71 -34 23 3 29 19 20 51 -29 101 -143 147 -248 99z"/>
<path d="M5152 3002 c-34 -13 -46 -14 -62 -4 -26 16 -55 15 -69 -2 -8 -9 -11
-90 -9 -272 l3 -259 45 0 45 0 3 205 c2 193 4 205 24 227 13 13 33 23 50 23
28 0 68 30 68 51 0 22 -21 49 -38 48 -9 -1 -36 -9 -60 -17z"/>
<path d="M5435 3006 c-38 -19 -75 -51 -75 -65 0 -6 -4 -11 -9 -11 -5 0 -11 -8
-15 -17 -30 -87 -36 -118 -36 -183 0 -85 20 -172 48 -209 64 -86 238 -96 319
-19 26 24 29 50 9 67 -15 13 -38 7 -78 -21 -33 -23 -115 -24 -147 -2 -13 9
-29 32 -37 50 -15 35 -19 104 -6 104 4 1 70 2 147 3 l140 2 -1 92 c-2 111 -26
164 -88 196 -50 26 -131 32 -171 13z m129 -91 c41 -38 64 -123 34 -126 -63 -6
-192 2 -198 11 -9 14 6 78 23 101 34 45 100 52 141 14z"/>
<path d="M5920 3004 c-57 -26 -110 -88 -110 -130 0 -33 84 -28 95 6 18 55 81
75 135 43 22 -13 29 -26 34 -66 4 -27 5 -52 2 -54 -3 -3 -38 -9 -78 -13 -85
-8 -127 -27 -161 -72 -51 -69 -55 -146 -11 -214 35 -53 157 -73 207 -34 30 24
41 25 56 6 15 -18 70 -31 81 -20 13 15 -5 455 -20 487 -30 62 -154 95 -230 61z
m150 -288 c18 -22 3 -126 -23 -153 -22 -25 -74 -39 -106 -28 -41 13 -64 92
-41 135 24 45 144 77 170 46z"/>
<path d="M6828 3009 c-20 -11 -23 -30 -9 -57 5 -9 17 -46 26 -82 25 -101 56
-203 66 -222 5 -10 9 -25 9 -33 0 -8 4 -23 9 -33 5 -9 15 -39 22 -65 18 -72
64 -86 93 -28 13 27 17 39 62 196 14 50 39 137 55 193 17 57 28 110 25 118 -6
14 -42 19 -70 8 -9 -4 -16 -18 -16 -34 0 -16 -4 -31 -9 -34 -5 -3 -11 -20 -14
-38 -2 -18 -14 -67 -25 -108 -12 -41 -22 -85 -22 -96 0 -12 -6 -27 -14 -33
-21 -17 -28 -1 -71 174 -20 83 -42 155 -49 161 -17 18 -49 24 -68 13z"/>
<path d="M7394 2996 c-51 -24 -94 -70 -94 -100 0 -9 -4 -16 -9 -16 -9 0 -19
-48 -27 -144 -6 -65 4 -116 38 -184 47 -93 159 -130 260 -84 58 26 84 57 109
128 28 79 24 247 -8 309 -55 106 -161 141 -269 91z m156 -95 c39 -40 44 -57
56 -180 4 -32 2 -57 -5 -64 -6 -6 -11 -23 -11 -37 0 -30 -27 -63 -71 -85 -41
-22 -90 -5 -127 43 -26 34 -27 40 -27 156 0 111 2 124 24 154 46 65 107 70
161 13z"/>
<path d="M7907 3005 c-67 -25 -97 -70 -97 -145 0 -73 21 -97 137 -155 88 -44
133 -84 133 -117 0 -16 -43 -50 -74 -59 -42 -12 -89 13 -114 59 -21 38 -28 43
-55 40 -41 -4 -54 -27 -38 -67 30 -70 97 -111 186 -112 104 -2 179 66 179 161
0 69 -28 100 -137 155 -110 56 -127 70 -127 106 0 33 41 69 79 69 27 0 68 -31
87 -65 8 -15 22 -20 50 -20 37 0 39 1 38 32 -5 97 -134 159 -247 118z"/>
<path d="M1926 2997 c-16 -12 -17 -31 -14 -228 3 -227 8 -248 57 -293 32 -29
102 -36 162 -16 47 16 54 16 90 2 24 -9 43 -12 49 -6 13 13 19 233 11 404 l-6
145 -40 0 -40 0 -3 -206 -2 -206 -30 -32 c-24 -24 -38 -31 -70 -31 -34 0 -43
5 -65 37 -25 37 -25 41 -25 225 0 102 -3 193 -6 202 -7 19 -44 21 -68 3z"/>
<path d="M6628 2999 c-20 -11 -24 -39 -8 -55 8 -8 8 -19 0 -38 -13 -36 -13
-118 1 -228 9 -67 9 -92 0 -101 -15 -15 -14 -90 1 -105 7 -7 29 -12 50 -12
l38 0 -2 273 -3 272 -30 2 c-16 2 -38 -2 -47 -8z"/>
</g>
</svg>
